# xmcd
#
# Track frame offsets:
# 150
# 12782
# 29650
# 48925
# 63752
# 81967
# 99950
# 115862
# 130317
# 147642
# 173445
# 191555
# 206970
# 224927
# 239175
# 260882
# 276305
#
# Disc length: 3923 seconds
#
#
# Revision: 3
# Processed by: cddbd v1.4PL0 Copyright (c) Steve Scherf et al.
# Submitted via: FreeRIP 2.30 
#
DISCID=0f0f5111
DTITLE=Various Artist - Super Exitos 2001
DYEAR=1900
DGENRE=
TTITLE0=La oreja de Van Gogh - Cuídate
TTITLE1=Morbo - Enséñame
TTITLE2=Elefante - De la noche a la mañana
TTITLE3=OV7 - Como eres
TTITLE4=Sentidos Opuestos - Eternamente
TTITLE5=El gran silencio - Chúntaros Style
TTITLE6=xmagneto - Una y otra vez
TTITLE7=The Ruidos - Feas
TTITLE8=Kabah - Te necesito
TTITLE9=Jarabe de palo - De vuelta y vuelta
TTITLE10=Guarana - En la casa de Inés
TTITLE11=MDO - Sin tí
TTITLE12=El círculo - Popurrí del sirenito
TTITLE13=Ella Baila Sola - Cómo repartimos los amigos
TTITLE14=Chayanne - Yo te amo
TTITLE15=Genitallica - ¿Qué fue lo que pasó?
TTITLE16=Thalía - Arrasando
EXTD=
EXTT0=
EXTT1=
EXTT2=
EXTT3=
EXTT4=
EXTT5=
EXTT6=
EXTT7=
EXTT8=
EXTT9=
EXTT10=
EXTT11=
EXTT12=
EXTT13=
EXTT14=
EXTT15=
EXTT16=
PLAYORDER=
